<svg width="141" height="140" viewBox="0 0 141 140" fill="none" xmlns="http://www.w3.org/2000/svg">
<g id="Group">
<path id="Vector" fill-rule="evenodd" clip-rule="evenodd" d="M98.1593 57.5394L57.4819 97.7351C55.2321 99.9584 51.5841 99.9584 49.3343 97.7351C47.0845 95.5119 47.0845 91.907 49.3343 89.6837L90.2429 49.2593C90.2617 49.2401 90.2807 49.2205 90.2994 49.2012L131.208 7.62151C133.427 5.36624 137.025 5.36624 139.243 7.62151C141.463 9.87678 141.463 13.5333 139.243 15.7885L98.4573 57.2439C98.452 57.2492 98.4464 57.2548 98.4411 57.2601L98.3349 57.3683C98.2773 57.4268 98.2186 57.4841 98.1593 57.5394Z" fill="#EE81A5"/>
<path id="Vector_2" fill-rule="evenodd" clip-rule="evenodd" d="M49.8351 28.906C49.8351 39.0553 41.7518 47.2622 31.8054 47.2622C21.8594 47.2622 13.7762 39.0553 13.7762 28.906C13.7762 18.7568 21.8594 10.5499 31.8054 10.5499C41.7518 10.5499 49.8351 18.7568 49.8351 28.906ZM61.1987 28.906C61.1987 45.4228 48.0388 58.812 31.8054 58.812C15.5723 58.812 2.4126 45.4228 2.4126 28.906C2.4126 12.3894 15.5723 -1 31.8054 -1C48.0388 -1 61.1987 12.3894 61.1987 28.906ZM1.66329 118.279C-0.554432 116.023 -0.554432 112.364 1.66329 110.108L75.6902 34.7889C77.9079 32.5324 81.5035 32.5324 83.7212 34.7889C85.9388 37.0454 85.9388 40.7038 83.7212 42.9603L69.8405 57.083L139.127 127.579C141.343 129.833 141.392 133.544 139.236 135.868C137.082 138.19 133.539 138.247 131.324 135.993L61.804 65.2602L9.6944 118.279C7.47668 120.535 3.88101 120.535 1.66329 118.279Z" fill="#52C1BF"/>
<path id="Vector_3" fill-rule="evenodd" clip-rule="evenodd" d="M94.551 98.3997C104.067 89.2222 109.954 81.0321 109.287 72.0329C108.954 67.5417 107.027 63.5991 104.448 60.0076C101.896 56.4527 98.4279 52.8674 94.5012 49.0835L86.683 57.4653C90.5438 61.1855 93.3658 64.1658 95.2687 66.8162C97.1452 69.4298 97.8389 71.3312 97.9552 72.9008C98.15 75.5277 96.8371 79.3543 90.6086 86.0799C90.5331 86.149 90.4593 86.2203 90.3866 86.2941L47.3859 130.046C45.1682 132.301 45.1682 135.961 47.3859 138.217C49.6035 140.473 53.1992 140.473 55.4169 138.217L94.551 98.3997Z" fill="#EE81A5"/>
</g>
</svg>
