<svg xmlns="http://www.w3.org/2000/svg" width="8" height="16" viewBox="0 0 8 16" fill="none">
  <path d="M8 15.0017C7.99976 14.7363 7.89284 14.4818 7.70275 14.2943L2.51977 9.17379C2.36289 9.01885 2.23845 8.83489 2.15354 8.63242C2.06864 8.42995 2.02494 8.21294 2.02494 7.99379C2.02494 7.77463 2.06864 7.55762 2.15354 7.35515C2.23845 7.15269 2.36289 6.96873 2.51977 6.81378L7.69599 1.69664C7.88058 1.50782 7.98272 1.25493 7.98042 0.992437C7.97811 0.729942 7.87153 0.478845 7.68365 0.293226C7.49576 0.107607 7.2416 0.00231885 6.9759 3.78456e-05C6.71021 -0.00224316 6.45423 0.0986658 6.26311 0.281031L1.08689 5.39417C0.390892 6.08313 4.76837e-07 7.01674 4.76837e-07 7.99012C4.76837e-07 8.96349 0.390892 9.89711 1.08689 10.5861L6.26986 15.7065C6.41138 15.8464 6.59168 15.9418 6.78799 15.9806C6.98431 16.0193 7.18786 15.9998 7.37294 15.9244C7.55803 15.849 7.71636 15.7211 7.82796 15.5569C7.93956 15.3927 7.99942 15.1995 8 15.0017Z" fill="#CDCDD6"/>
</svg>