<svg width="20" height="16" viewBox="0 0 20 16" fill="none" xmlns="http://www.w3.org/2000/svg">
<g id="camera-1--photos-picture-camera-photography-photo-pictures">
<path id="Vector" d="M19.2858 5.14283C19.2858 4.76395 19.1352 4.40059 18.8674 4.13267C18.5995 3.86477 18.2361 3.71426 17.8572 3.71426H15.0001L12.8572 0.857117H7.14293L5.00007 3.71426H2.14293C1.76404 3.71426 1.40068 3.86477 1.13277 4.13267C0.864865 4.40059 0.714355 4.76395 0.714355 5.14283V13.7143C0.714355 14.0931 0.864865 14.4565 1.13277 14.7244C1.40068 14.9923 1.76404 15.1428 2.14293 15.1428H17.8572C18.2361 15.1428 18.5995 14.9923 18.8674 14.7244C19.1352 14.4565 19.2858 14.0931 19.2858 13.7143V5.14283Z" stroke="#656572" stroke-linecap="round" stroke-linejoin="round"/>
<path id="Vector_2" d="M10.0002 11.9286C11.7754 11.9286 13.2145 10.4895 13.2145 8.71429C13.2145 6.93909 11.7754 5.5 10.0002 5.5C8.22497 5.5 6.78589 6.93909 6.78589 8.71429C6.78589 10.4895 8.22497 11.9286 10.0002 11.9286Z" stroke="#656572" stroke-linecap="round" stroke-linejoin="round"/>
</g>
</svg>
