<svg xmlns="http://www.w3.org/2000/svg" width="56" height="56" viewBox="0 0 56 56" fill="none">
  <rect width="56" height="56" rx="28" fill="#FAFBFB"/>
  <path d="M56 28C56 43.464 43.464 56 28 56C12.536 56 0 43.464 0 28C0 12.536 12.536 0 28 0C43.464 0 56 12.536 56 28ZM5.6 28C5.6 40.3712 15.6288 50.4 28 50.4C40.3712 50.4 50.4 40.3712 50.4 28C50.4 15.6288 40.3712 5.6 28 5.6C15.6288 5.6 5.6 15.6288 5.6 28Z" fill="#CDCDD6"/>
  <path d="M56 28C56 43.464 43.464 56 28 56C12.536 56 0 43.464 0 28C0 12.536 12.536 0 28 0C43.464 0 56 12.536 56 28ZM5.6 28C5.6 40.3712 15.6288 50.4 28 50.4C40.3712 50.4 50.4 40.3712 50.4 28C50.4 15.6288 40.3712 5.6 28 5.6C15.6288 5.6 5.6 15.6288 5.6 28Z" fill="#52C1BF"/>
  <path d="M20 29.5L24.3062 32.8306C25.1521 33.4848 26.363 33.3579 27.0548 32.5425L36 22" stroke="#52C1BF" stroke-width="4" stroke-linecap="round" stroke-linejoin="round"/>
</svg>