<svg xmlns="http://www.w3.org/2000/svg" width="86" height="86" viewBox="0 0 86 86" fill="none">
  <path d="M8.42854 83.8571H77.5714C81.043 83.8571 83.8571 81.043 83.8571 77.5714V8.42857C83.8571 4.95706 81.043 2.14285 77.5714 2.14285H8.42854C4.95703 2.14285 2.14282 4.95706 2.14282 8.42857V77.5714C2.14282 81.043 4.95703 83.8571 8.42854 83.8571Z" stroke="#FAFBFB" stroke-width="4" stroke-linecap="round" stroke-linejoin="round"/>
  <path d="M10 83.8572L55.8857 40.6112C56.4504 40.1408 57.1622 39.8832 57.8971 39.8832C58.6321 39.8832 59.3438 40.1408 59.9085 40.6112L83.8571 57.7712" stroke="#FAFBFB" stroke-width="4" stroke-linecap="round" stroke-linejoin="round"/>
  <path d="M27.2857 36.7143C32.493 36.7143 36.7143 32.493 36.7143 27.2857C36.7143 22.0784 32.493 17.8571 27.2857 17.8571C22.0785 17.8571 17.8572 22.0784 17.8572 27.2857C17.8572 32.493 22.0785 36.7143 27.2857 36.7143Z" stroke="#FAFBFB" stroke-width="4" stroke-linecap="round" stroke-linejoin="round"/>
</svg>