<svg width="42" height="42" viewBox="0 0 42 42" fill="none" xmlns="http://www.w3.org/2000/svg">
<circle cx="21" cy="21" r="20.5" fill="#FAFBFB" stroke="#DDE1E6"/>
<g clip-path="url(#clip0_2883_2038)">
<path fill-rule="evenodd" clip-rule="evenodd" d="M30.9081 21.7387C30.9081 20.9941 30.8413 20.2782 30.7172 19.5909H20.8281V23.6525H26.479C26.2356 24.965 25.4959 26.0771 24.3838 26.8216V29.4562H27.7772C29.7627 27.6282 30.9081 24.9364 30.9081 21.7387Z" fill="#4285F4"/>
<path fill-rule="evenodd" clip-rule="evenodd" d="M20.8283 32C23.6633 32 26.0401 31.0598 27.7773 29.4561L24.3839 26.8216C23.4437 27.4516 22.241 27.8239 20.8283 27.8239C18.0935 27.8239 15.7787 25.9768 14.953 23.495H11.4451V26.2155C13.1728 29.647 16.7237 32 20.8283 32Z" fill="#34A853"/>
<path fill-rule="evenodd" clip-rule="evenodd" d="M14.9529 23.495C14.7429 22.865 14.6236 22.192 14.6236 21.5C14.6236 20.808 14.7429 20.135 14.9529 19.505V16.7845H11.4449C10.7338 18.202 10.3281 19.8057 10.3281 21.5C10.3281 23.1943 10.7338 24.798 11.4449 26.2155L14.9529 23.495Z" fill="#FBBC05"/>
<path fill-rule="evenodd" clip-rule="evenodd" d="M20.8283 15.1761C22.3698 15.1761 23.7539 15.7059 24.8421 16.7464L27.8537 13.7348C26.0353 12.0405 23.6585 11 20.8283 11C16.7237 11 13.1728 13.353 11.4451 16.7845L14.953 19.505C15.7787 17.0232 18.0935 15.1761 20.8283 15.1761Z" fill="#EA4335"/>
</g>
<defs>
<clipPath id="clip0_2883_2038">
<rect width="21" height="21" fill="white" transform="translate(10 11)"/>
</clipPath>
</defs>
</svg>
