<svg width="21" height="24" viewBox="0 0 21 24" fill="none" xmlns="http://www.w3.org/2000/svg">
<g id="paintbrush-1--brush-color-colors-design-paint-painting">
<path id="Vector" d="M18.1156 14.5385H2.88474L1.59859 20.9692C1.55013 21.2151 1.55689 21.4686 1.61835 21.7115C1.67982 21.9543 1.79444 22.1806 1.95397 22.3739C2.11144 22.568 2.30996 22.7248 2.53528 22.8331C2.76059 22.9413 3.00708 22.9983 3.25705 23H17.7433C17.9932 22.9983 18.2396 22.9413 18.465 22.8331C18.6903 22.7248 18.8888 22.568 19.0463 22.3739C19.2058 22.1806 19.3205 21.9543 19.3819 21.7115C19.4434 21.4686 19.4501 21.2151 19.4017 20.9692L18.1156 14.5385Z" stroke="#9696A6" stroke-width="2" stroke-linecap="round" stroke-linejoin="round"/>
<path id="Vector_2" d="M18.1155 9.46154C18.5643 9.46154 18.9948 9.63984 19.3121 9.9572C19.6294 10.2746 19.8078 10.705 19.8078 11.1538V14.5385H1.19238V11.1538C1.19238 10.705 1.37068 10.2746 1.68804 9.9572C2.00542 9.63984 2.43586 9.46154 2.88469 9.46154H5.42315C5.87199 9.46154 6.30243 9.28324 6.6198 8.96588C6.93716 8.6485 7.11546 8.21807 7.11546 7.76923V4.38462C7.11546 3.48696 7.47205 2.62607 8.1068 1.99134C8.74153 1.35659 9.60243 1 10.5001 1C11.3977 1 12.2586 1.35659 12.8934 1.99134C13.5281 2.62607 13.8847 3.48696 13.8847 4.38462V7.76923C13.8847 8.21807 14.063 8.6485 14.3804 8.96588C14.6977 9.28324 15.1282 9.46154 15.577 9.46154H18.1155Z" stroke="#9696A6" stroke-width="2" stroke-linecap="round" stroke-linejoin="round"/>
<path id="Vector_3" d="M13.0386 23V18.7692" stroke="#9696A6" stroke-width="2" stroke-linecap="round" stroke-linejoin="round"/>
</g>
</svg>
