<svg width="24" height="24" viewBox="0 0 24 24" fill="none" xmlns="http://www.w3.org/2000/svg">
<g id="user-circle-single--circle-geometric-human-person-single-user">
<g id="Group 4569">
<path id="Vector" d="M15.6155 9.23022C15.6155 11.2269 13.9969 12.8456 12.0002 12.8456C10.0034 12.8456 8.38477 11.2269 8.38477 9.23022C8.38477 7.2335 10.0034 5.61484 12.0002 5.61484C13.9969 5.61484 15.6155 7.2335 15.6155 9.23022Z" stroke="#9696A6" stroke-width="2" stroke-linecap="round" stroke-linejoin="round"/>
<g id="Vector_2">
<mask id="path-2-inside-1_3902_3014" fill="white">
<path d="M4.11694 21.0463C4.94077 19.694 6.09862 18.5763 7.47918 17.8009C8.85973 17.0253 10.4166 16.618 12 16.618C13.5835 16.618 15.1403 17.0253 16.5209 17.8009C17.9015 18.5763 19.0592 19.694 19.8831 21.0463"/>
</mask>
<path d="M2.40893 20.0057C1.83426 20.949 2.13311 22.1796 3.07642 22.7543C4.01973 23.3289 5.25029 23.0301 5.82496 22.0868L2.40893 20.0057ZM7.47918 17.8009L8.45857 19.5447L8.45878 19.5446L7.47918 17.8009ZM16.5209 17.8009L15.5413 19.5446L15.5415 19.5447L16.5209 17.8009ZM18.1752 22.0869C18.7499 23.0302 19.9805 23.3289 20.9238 22.7542C21.867 22.1795 22.1658 20.9489 21.5911 20.0056L18.1752 22.0869ZM5.82496 22.0868C6.4703 21.0275 7.37726 20.152 8.45857 19.5447L6.49978 16.0571C4.81998 17.0006 3.41124 18.3605 2.40893 20.0057L5.82496 22.0868ZM8.45878 19.5446C9.54017 18.937 10.7596 18.618 12 18.618V14.618C10.0735 14.618 8.17929 15.1136 6.49957 16.0572L8.45878 19.5446ZM12 18.618C13.2404 18.618 14.4599 18.937 15.5413 19.5446L17.5005 16.0572C15.8208 15.1136 13.9266 14.618 12 14.618V18.618ZM15.5415 19.5447C16.6228 20.152 17.5297 21.0274 18.1752 22.0869L21.5911 20.0056C20.5887 18.3605 19.1802 17.0006 17.5002 16.0571L15.5415 19.5447Z" fill="#9696A6" mask="url(#path-2-inside-1_3902_3014)"/>
</g>
<path id="Vector_3" d="M23 12C23 18.0752 18.0752 23 12 23C5.92486 23 1 18.0752 1 12C1 5.92487 5.92487 1 12 1C18.0752 1 23 5.92486 23 12Z" stroke="#9696A6" stroke-width="2" stroke-linecap="round" stroke-linejoin="round"/>
</g>
</g>
</svg>
