<svg width="156" height="68" viewBox="0 0 156 68" fill="none" xmlns="http://www.w3.org/2000/svg">
<g id="Group 1" filter="url(#filter0_d_2546_1445)">
<g id="Group">
<path id="Vector" d="M32.1107 27.7397L31.7163 29.12C31.2274 28.5003 30.6082 28.0496 29.8571 27.7679C29.1058 27.4861 28.2795 27.3453 27.378 27.3453C26.3827 27.3453 25.4666 27.5378 24.6315 27.9228C23.7957 28.3078 23.068 28.8336 22.4482 29.5003C21.8285 30.167 21.3449 30.947 20.9975 31.8384C20.6501 32.7305 20.4763 33.6836 20.4763 34.6977C20.4763 35.7119 20.6501 36.665 20.9975 37.557C21.3449 38.4491 21.8285 39.2285 22.4482 39.8952C23.068 40.5619 23.7957 41.0883 24.6315 41.4727C25.4666 41.8577 26.3821 42.0502 27.378 42.0502C28.2044 42.0502 28.9978 41.9281 29.7584 41.684C30.5191 41.4398 31.1717 40.9516 31.7163 40.2192L32.1107 41.7122H35.4629V27.7397H32.1107ZM30.4909 37.6415C29.7866 38.2713 28.9274 38.5853 27.9133 38.5853C27.4062 38.5853 26.932 38.482 26.4907 38.2754C26.0494 38.0688 25.6596 37.7924 25.3216 37.4444C24.9836 37.0969 24.7201 36.6885 24.5329 36.219C24.3451 35.7495 24.2511 35.243 24.2511 34.6977C24.2511 34.1526 24.3451 33.6696 24.5329 33.1906C24.7201 32.7117 24.9836 32.2992 25.3216 31.9512C25.6596 31.6037 26.0494 31.3267 26.4907 31.1201C26.932 30.9135 27.4062 30.8103 27.9133 30.8103C28.4204 30.8103 28.8946 30.8807 29.3359 31.0215C29.7766 31.1624 30.1622 31.3877 30.4909 31.6976C30.819 32.0075 31.0825 32.4118 31.2796 32.9089C31.4768 33.4066 31.5755 34.0217 31.5755 34.7541C31.5567 36.0499 31.1951 37.0124 30.4909 37.6415Z" fill="#17171B"/>
<path id="Vector_2" d="M24.9131 20.7754C25.5099 20.7754 26.0135 20.982 26.4243 21.3951C26.8345 21.8083 27.0399 22.3154 27.0399 22.9163C27.0399 23.5173 26.8345 24.0291 26.4243 24.4516C26.0135 24.8742 25.5099 25.0854 24.9131 25.0854C24.3162 25.0854 23.8074 24.8742 23.3872 24.4516C22.9669 24.0291 22.7581 23.5173 22.7581 22.9163C22.7581 22.3154 22.9676 21.8083 23.3872 21.3951C23.8074 20.982 24.3156 20.7754 24.9131 20.7754Z" fill="#52C1BF"/>
<path id="Vector_3" d="M31.7302 20.7754C32.3271 20.7754 32.8306 20.982 33.2415 21.3951C33.6517 21.8083 33.8571 22.3154 33.8571 22.9163C33.8571 23.5173 33.6517 24.0291 33.2415 24.4516C32.8306 24.8742 32.3271 25.0854 31.7302 25.0854C31.1333 25.0854 30.6245 24.8742 30.2043 24.4516C29.7841 24.0291 29.5752 23.5173 29.5752 22.9163C29.5752 22.3154 29.7847 21.8083 30.2043 21.3951C30.6245 20.982 31.1328 20.7754 31.7302 20.7754Z" fill="#EE81A5"/>
<path id="Vector_4" d="M41.8009 29.6834C41.9884 29.3829 42.2044 29.0965 42.4488 28.8243C42.6927 28.5525 42.9839 28.3078 43.3218 28.0918C43.6603 27.8764 44.045 27.7021 44.4769 27.5706C44.9089 27.4398 45.3967 27.3735 45.942 27.3735C46.5802 27.3735 47.3222 27.4861 48.1673 27.7115L47.8009 31.1764C47.5941 31.1389 47.3877 31.0919 47.1814 31.0356C47.0122 30.998 46.8247 30.9652 46.6179 30.937C46.4106 30.9088 46.2235 30.8948 46.0548 30.8948C45.4531 30.8948 44.8949 30.9793 44.3786 31.1483C43.8618 31.3173 43.4158 31.5521 43.0403 31.8526C42.6643 32.1531 42.3644 32.5146 42.1388 32.9371C41.9137 33.3597 41.8009 33.8151 41.8009 34.3034V41.7122H37.9133V27.7397H41.4345L41.8009 29.6834Z" fill="#17171B"/>
<path id="Vector_5" d="M56.1812 38.2456C56.5852 38.6036 57.116 38.7826 57.773 38.7826C58.299 38.7826 58.8249 38.6799 59.3504 38.4727V41.7164C58.8809 41.8655 58.3833 41.9911 57.8574 42.0938C57.3319 42.1959 56.8055 42.2475 56.28 42.2475C55.6784 42.2475 55.1061 42.1724 54.5614 42.0222C54.0166 41.8714 53.5288 41.6137 53.0968 41.2475C52.6644 40.8813 52.3221 40.393 52.0685 39.7826C51.8149 39.1723 51.6882 38.4164 51.6882 37.5149V31.2047H49.688V28.5849L51.6882 27.7398V24.6129H55.5757V27.7398H59.3504V31.2047H55.5757V36.7185C55.5757 37.3782 55.7772 37.887 56.1812 38.2456Z" fill="#17171B"/>
<path id="Vector_6" d="M70.0833 34.3879C71.1154 35.1203 71.6327 36.1626 71.6327 37.5148C71.6327 38.1346 71.4871 38.7168 71.1959 39.2614C70.9047 39.806 70.5056 40.2849 69.9989 40.6981C69.4917 41.1112 68.9002 41.4352 68.2239 41.6699C67.548 41.9047 66.8249 42.0221 66.055 42.0221C65.4726 42.0221 64.9037 41.9469 64.3503 41.7967C63.7964 41.6465 63.2839 41.4399 62.8154 41.177C62.3458 40.914 61.9375 40.5995 61.5899 40.2333C61.2423 39.867 60.9844 39.4586 60.8152 39.0079C61.2471 38.8013 61.7258 38.5712 62.2518 38.3177C62.7778 38.0641 63.2377 37.8341 63.632 37.6275C63.8012 37.9092 64.064 38.1674 64.4212 38.4022C64.777 38.6369 65.2663 38.7543 65.8858 38.7543C66.5057 38.7543 66.9941 38.6041 67.2944 38.3036C67.5943 38.0037 67.7452 37.7214 67.7452 37.4585C67.7452 37.2712 67.642 37.097 67.4352 36.9373C67.2284 36.7777 66.9941 36.6509 66.7309 36.557C66.3553 36.4068 66.0453 36.327 65.8014 36.3176C65.557 36.3082 65.2754 36.2566 64.9563 36.1626C63.942 35.9191 63.1673 35.5951 62.6322 35.1908C62.097 34.787 61.707 34.3785 61.4631 33.9654C61.2187 33.5522 61.0827 33.1584 61.0548 32.7822C61.0263 32.4066 61.0124 32.1061 61.0124 31.8808C61.0124 31.2798 61.143 30.707 61.4067 30.1624C61.6694 29.6177 62.0305 29.1441 62.4914 28.7397C62.9513 28.336 63.4864 28.012 64.0972 27.7679C64.7075 27.5243 65.3598 27.4017 66.055 27.4017C66.6368 27.4017 67.1912 27.4862 67.7167 27.6552C68.2422 27.8242 68.7209 28.0596 69.1538 28.3595C69.5857 28.66 69.9565 29.0174 70.2665 29.4299C70.576 29.8431 70.8064 30.3032 70.9563 30.8103L67.9423 31.8244C67.8295 31.4864 67.5996 31.214 67.252 31.0075C66.9044 30.8009 66.5337 30.6976 66.1393 30.6976C65.745 30.6976 65.4249 30.8291 65.1814 31.092C64.9375 31.3549 64.8155 31.6178 64.8155 31.8808C64.8155 32.2 64.9327 32.4489 65.1674 32.6273C65.4022 32.8057 65.6606 32.9324 65.9422 33.0075C66.149 33.0457 66.3505 33.078 66.5477 33.1062C66.7448 33.1343 66.9377 33.1672 67.1252 33.2048C67.7828 33.355 68.3507 33.524 68.8298 33.7118C69.3086 33.8996 69.7265 34.125 70.0833 34.3879Z" fill="#17171B"/>
<path id="Vector_7" d="M80.562 30.8103C80.0929 30.8103 79.6513 30.9182 79.2382 31.1342C78.825 31.3502 78.4635 31.6413 78.1535 32.0075C77.844 32.3737 77.5996 32.8009 77.4212 33.2892C77.2428 33.7781 77.1536 34.3033 77.1536 34.8668C77.1536 35.4302 77.2428 35.942 77.4212 36.4021C77.5996 36.8628 77.844 37.2566 78.1535 37.5852C78.4635 37.9139 78.825 38.1721 79.2382 38.3599C79.6513 38.5477 80.0929 38.6416 80.562 38.6416C81.1443 38.6416 81.7127 38.5054 82.2666 38.2331C82.8205 37.9608 83.2949 37.5805 83.6893 37.0923L86.0838 39.4585C85.4257 40.2473 84.6187 40.8771 83.6608 41.3459C82.7029 41.8155 81.6703 42.0502 80.562 42.0502C79.5482 42.0502 78.5999 41.8577 77.7172 41.4727C76.8345 41.0883 76.0641 40.5619 75.407 39.8952C74.749 39.229 74.2284 38.4491 73.8436 37.557C73.4585 36.665 73.2661 35.7119 73.2661 34.6977C73.2661 33.6836 73.4585 32.7305 73.8436 31.8384C74.2279 30.947 74.749 30.167 75.407 29.5003C76.0641 28.8342 76.8345 28.3078 77.7172 27.9228C78.5999 27.5378 79.5482 27.3453 80.562 27.3453C81.7079 27.3453 82.769 27.5895 83.7457 28.0777C84.7214 28.566 85.5482 29.2327 86.2246 30.0778L83.5201 32.1624C82.9748 31.6554 82.4816 31.3032 82.041 31.106C81.5999 30.9088 81.1067 30.8103 80.562 30.8103Z" fill="#17171B"/>
<path id="Vector_8" d="M102.832 28.1307V42.1032H99.4798L99.0855 40.6101C98.5403 41.3426 97.888 41.8308 97.1278 42.075C96.367 42.3186 95.5735 42.4412 94.7472 42.4412C93.7517 42.4412 92.8358 42.2487 92.0008 41.8637C91.1649 41.4793 90.4369 40.9529 89.8174 40.2862C89.1975 39.62 88.7139 38.8401 88.3668 37.948C88.0193 37.056 87.8457 36.1029 87.8457 35.0887C87.8457 34.0746 88.0193 33.1215 88.3668 32.2294C88.7139 31.338 89.1975 30.558 89.8174 29.8913C90.4369 29.2252 91.1649 28.6988 92.0008 28.3138C92.8358 27.9288 93.7512 27.7363 94.7472 27.7363C95.6487 27.7363 96.475 27.8771 97.2261 28.1589C97.9767 28.4405 98.5967 28.8913 99.0855 29.511L99.4798 28.1307H102.832ZM98.9447 35.1451C98.9447 34.4127 98.8459 33.7976 98.6487 33.2999C98.4516 32.8023 98.1879 32.3985 97.86 32.0886C97.5313 31.7787 97.1456 31.5534 96.705 31.4125C96.2639 31.2717 95.7895 31.2013 95.2823 31.2013C94.7752 31.2013 94.3013 31.3045 93.8597 31.5111C93.4186 31.7177 93.0286 31.9947 92.6907 32.3422C92.3527 32.6896 92.089 33.1027 91.902 33.5816C91.714 34.0605 91.6204 34.5635 91.6204 35.0887C91.6204 35.614 91.714 36.1405 91.902 36.61C92.089 37.0795 92.3527 37.4879 92.6907 37.8354C93.0286 38.1834 93.4186 38.4598 93.8597 38.6664C94.3013 38.873 94.7752 38.9763 95.2823 38.9763C96.2966 38.9763 97.1557 38.6623 97.86 38.0325C98.5644 37.4034 98.9259 36.4409 98.9447 35.1451Z" fill="#17171B"/>
<path id="Vector_9" d="M113.409 27.3453C114.404 27.3453 115.324 27.5378 116.169 27.9228C117.014 28.3078 117.742 28.8336 118.352 29.5003C118.963 30.167 119.441 30.947 119.789 31.8384C120.137 32.7305 120.31 33.6836 120.31 34.6977C120.31 35.7119 120.137 36.665 119.789 37.557C119.441 38.4491 118.963 39.2285 118.352 39.8952C117.742 40.5619 117.014 41.0883 116.169 41.4727C115.324 41.8577 114.404 42.0502 113.409 42.0502C112.601 42.0502 111.812 41.9047 111.042 41.6136C110.272 41.3225 109.671 40.9516 109.239 40.5008V47.2899H105.352V27.7397H108.676L109.239 28.6975C109.784 28.2092 110.394 27.8617 111.071 27.6552C111.746 27.4486 112.526 27.3453 113.409 27.3453ZM112.901 38.5853C113.409 38.5853 113.883 38.482 114.324 38.2754C114.765 38.0688 115.15 37.7924 115.479 37.4444C115.807 37.0969 116.071 36.6885 116.268 36.219C116.465 35.7495 116.563 35.243 116.563 34.6977C116.563 34.1526 116.465 33.6696 116.268 33.1906C116.071 32.7117 115.807 32.2992 115.479 31.9512C115.15 31.6037 114.765 31.3267 114.324 31.1201C113.883 30.9135 113.409 30.8103 112.901 30.8103C112.394 30.8103 111.92 30.8807 111.479 31.0215C111.038 31.1624 110.652 31.3877 110.324 31.6976C109.995 32.0075 109.737 32.4118 109.549 32.9089C109.362 33.4066 109.268 34.0035 109.268 34.6977C109.268 35.3556 109.362 35.9232 109.549 36.4021C109.737 36.881 109.995 37.2848 110.324 37.6134C110.652 37.942 111.038 38.1862 111.479 38.3458C111.919 38.5054 112.394 38.5853 112.901 38.5853Z" fill="#17171B"/>
<path id="Vector_10" d="M128.874 27.3453C129.925 27.3453 130.883 27.5566 131.747 27.9791C132.61 28.4017 133.353 28.9557 133.973 29.6412C134.592 30.3273 135.071 31.1154 135.409 32.0075C135.747 32.8996 135.916 33.8151 135.916 34.7541C135.916 35.3175 135.841 35.9191 135.691 36.557H125.718C126.094 37.1955 126.629 37.7355 127.324 38.1768C128.018 38.6181 128.77 38.8388 129.578 38.8388C130.385 38.8388 131.094 38.773 131.705 38.6416C132.314 38.5101 132.892 38.3411 133.437 38.1345L134.733 40.529C134.038 41.0179 133.244 41.3929 132.353 41.6558C131.46 41.9187 130.507 42.0502 129.493 42.0502C128.385 42.0502 127.353 41.8577 126.395 41.4727C125.437 41.0883 124.601 40.5672 123.887 39.9093C123.173 39.252 122.61 38.4726 122.197 37.5711C121.784 36.6697 121.577 35.7119 121.577 34.6977C121.577 33.6836 121.765 32.7587 122.141 31.8667C122.516 30.9746 123.037 30.1952 123.704 29.5285C124.37 28.8624 125.145 28.3313 126.028 27.9369C126.911 27.5425 127.859 27.3453 128.874 27.3453ZM132.057 33.5428C131.832 32.7358 131.427 32.0779 130.845 31.5708C130.263 31.0638 129.606 30.8103 128.874 30.8103C128.141 30.8103 127.441 31.0638 126.831 31.5708C126.221 32.0779 125.803 32.7352 125.577 33.5428H132.057Z" fill="#17171B"/>
</g>
</g>
<defs>
<filter id="filter0_d_2546_1445" x="0.476318" y="0.775391" width="155.44" height="66.5145" filterUnits="userSpaceOnUse" color-interpolation-filters="sRGB">
<feFlood flood-opacity="0" result="BackgroundImageFix"/>
<feColorMatrix in="SourceAlpha" type="matrix" values="0 0 0 0 0 0 0 0 0 0 0 0 0 0 0 0 0 0 127 0" result="hardAlpha"/>
<feOffset/>
<feGaussianBlur stdDeviation="10"/>
<feComposite in2="hardAlpha" operator="out"/>
<feColorMatrix type="matrix" values="0 0 0 0 0 0 0 0 0 0 0 0 0 0 0 0 0 0 0.2 0"/>
<feBlend mode="normal" in2="BackgroundImageFix" result="effect1_dropShadow_2546_1445"/>
<feBlend mode="normal" in="SourceGraphic" in2="effect1_dropShadow_2546_1445" result="shape"/>
</filter>
</defs>
</svg>
