<svg width="146" height="56" viewBox="0 0 146 56" fill="none" xmlns="http://www.w3.org/2000/svg">
<g id="Group 1">
<g id="Group">
<path id="Vector" d="M27.1104 21.7397L26.716 23.12C26.2272 22.5003 25.608 22.0496 24.8568 21.7679C24.1056 21.4861 23.2792 21.3453 22.3778 21.3453C21.3825 21.3453 20.4663 21.5378 19.6312 21.9228C18.7955 22.3078 18.0678 22.8336 17.448 23.5003C16.8283 24.167 16.3446 24.947 15.9972 25.8385C15.6498 26.7305 15.4761 27.6836 15.4761 28.6977C15.4761 29.7119 15.6498 30.665 15.9972 31.557C16.3446 32.4491 16.8283 33.2285 17.448 33.8952C18.0678 34.5619 18.7955 35.0883 19.6312 35.4727C20.4663 35.8577 21.3819 36.0502 22.3778 36.0502C23.2041 36.0502 23.9976 35.9281 24.7582 35.684C25.5188 35.4398 26.1714 34.9516 26.716 34.2192L27.1104 35.7122H30.4627V21.7397H27.1104ZM25.4906 31.6415C24.7864 32.2713 23.9272 32.5853 22.9131 32.5853C22.406 32.5853 21.9318 32.482 21.4905 32.2754C21.0491 32.0688 20.6594 31.7924 20.3214 31.4444C19.9833 31.0969 19.7198 30.6885 19.5326 30.219C19.3448 29.7495 19.2509 29.243 19.2509 28.6977C19.2509 28.1526 19.3448 27.6696 19.5326 27.1906C19.7198 26.7117 19.9833 26.2992 20.3214 25.9512C20.6594 25.6037 21.0491 25.3267 21.4905 25.1201C21.9318 24.9135 22.406 24.8103 22.9131 24.8103C23.4201 24.8103 23.8943 24.8807 24.3356 25.0215C24.7764 25.1624 25.162 25.3877 25.4906 25.6976C25.8187 26.0075 26.0822 26.4118 26.2794 26.9089C26.4766 27.4066 26.5752 28.0217 26.5752 28.7541C26.5564 30.0499 26.1949 31.0124 25.4906 31.6415Z" fill="#17171B"/>
<path id="Vector_2" d="M19.9128 14.7754C20.5097 14.7754 21.0132 14.982 21.4241 15.3951C21.8343 15.8083 22.0397 16.3154 22.0397 16.9163C22.0397 17.5173 21.8343 18.0291 21.4241 18.4516C21.0132 18.8742 20.5097 19.0854 19.9128 19.0854C19.316 19.0854 18.8071 18.8742 18.3869 18.4516C17.9667 18.0291 17.7578 17.5173 17.7578 16.9163C17.7578 16.3154 17.9673 15.8083 18.3869 15.3951C18.8071 14.982 19.3154 14.7754 19.9128 14.7754Z" fill="#52C1BF"/>
<path id="Vector_3" d="M26.7297 14.7754C27.3266 14.7754 27.8301 14.982 28.241 15.3951C28.6512 15.8083 28.8566 16.3154 28.8566 16.9163C28.8566 17.5173 28.6512 18.0291 28.241 18.4516C27.8301 18.8742 27.3266 19.0854 26.7297 19.0854C26.1329 19.0854 25.6241 18.8742 25.2038 18.4516C24.7836 18.0291 24.5747 17.5173 24.5747 16.9163C24.5747 16.3154 24.7842 15.8083 25.2038 15.3951C25.6241 14.982 26.1323 14.7754 26.7297 14.7754Z" fill="#EE81A5"/>
<path id="Vector_4" d="M36.8006 23.6834C36.9881 23.3829 37.2041 23.0965 37.4485 22.8243C37.6925 22.5525 37.9837 22.3078 38.3216 22.0918C38.66 21.8764 39.0447 21.7021 39.4767 21.5706C39.9086 21.4398 40.3965 21.3735 40.9417 21.3735C41.58 21.3735 42.3219 21.4861 43.167 21.7115L42.8006 25.1764C42.5938 25.1389 42.3875 25.0919 42.1812 25.0356C42.012 24.998 41.8244 24.9652 41.6176 24.937C41.4103 24.9088 41.2233 24.8948 41.0545 24.8948C40.4529 24.8948 39.8946 24.9793 39.3783 25.1483C38.8615 25.3173 38.4156 25.5521 38.0401 25.8526C37.664 26.1531 37.3642 26.5146 37.1386 26.9371C36.9134 27.3597 36.8006 27.8151 36.8006 28.3034V35.7122H32.9131V21.7397H36.4342L36.8006 23.6834Z" fill="#17171B"/>
<path id="Vector_5" d="M51.1807 32.2456C51.5847 32.6036 52.1155 32.7826 52.7725 32.7826C53.2985 32.7826 53.8244 32.6799 54.3499 32.4727V35.7164C53.8804 35.8655 53.3829 35.9911 52.8569 36.0938C52.3314 36.1959 51.805 36.2475 51.2795 36.2475C50.6779 36.2475 50.1056 36.1724 49.5609 36.0222C49.0161 35.8714 48.5283 35.6137 48.0963 35.2475C47.6639 34.8813 47.3216 34.393 47.068 33.7826C46.8145 33.1723 46.6877 32.4164 46.6877 31.5149V25.2047H44.6875V22.5849L46.6877 21.7398V18.6129H50.5752V21.7398H54.3499V25.2047H50.5752V30.7185C50.5752 31.3782 50.7767 31.887 51.1807 32.2456Z" fill="#17171B"/>
<path id="Vector_6" d="M65.083 28.3879C66.1152 29.1203 66.6324 30.1626 66.6324 31.5148C66.6324 32.1346 66.4869 32.7168 66.1957 33.2614C65.9045 33.806 65.5053 34.2849 64.9987 34.6981C64.4915 35.1112 63.9 35.4352 63.2236 35.6699C62.5477 35.9047 61.8246 36.0221 61.0547 36.0221C60.4724 36.0221 59.9035 35.9469 59.3501 35.7967C58.7962 35.6465 58.2837 35.4399 57.8151 35.177C57.3456 34.914 56.9372 34.5995 56.5897 34.2333C56.2421 33.867 55.9842 33.4586 55.8149 33.0079C56.2469 32.8013 56.7256 32.5712 57.2516 32.3177C57.7775 32.0641 58.2374 31.8341 58.6318 31.6275C58.801 31.9092 59.0637 32.1674 59.4209 32.4022C59.7767 32.6369 60.266 32.7543 60.8855 32.7543C61.5055 32.7543 61.9938 32.6041 62.2942 32.3036C62.594 32.0037 62.7449 31.7214 62.7449 31.4585C62.7449 31.2712 62.6417 31.097 62.4349 30.9373C62.2281 30.7777 61.9938 30.6509 61.7306 30.557C61.3551 30.4068 61.0451 30.327 60.8011 30.3176C60.5567 30.3082 60.2752 30.2566 59.956 30.1626C58.9417 29.9191 58.167 29.5951 57.6319 29.1908C57.0968 28.787 56.7068 28.3785 56.4629 27.9654C56.2185 27.5522 56.0825 27.1584 56.0545 26.7822C56.0261 26.4066 56.0121 26.1061 56.0121 25.8808C56.0121 25.2798 56.1428 24.707 56.4065 24.1624C56.6692 23.6177 57.0303 23.1441 57.4912 22.7397C57.9511 22.336 58.4862 22.012 59.097 21.7679C59.7073 21.5243 60.3596 21.4017 61.0547 21.4017C61.6366 21.4017 62.191 21.4862 62.7165 21.6552C63.2419 21.8242 63.7206 22.0596 64.1536 22.3595C64.5855 22.66 64.9562 23.0174 65.2662 23.4299C65.5757 23.8431 65.8062 24.3032 65.9561 24.8103L62.9421 25.8244C62.8293 25.4864 62.5993 25.214 62.2517 25.0075C61.9042 24.8009 61.5334 24.6976 61.1391 24.6976C60.7447 24.6976 60.4246 24.8291 60.1812 25.092C59.9373 25.3549 59.8153 25.6178 59.8153 25.8808C59.8153 26.2 59.9324 26.4489 60.1672 26.6273C60.402 26.8057 60.6604 26.9324 60.9419 27.0075C61.1487 27.0457 61.3502 27.078 61.5474 27.1062C61.7446 27.1343 61.9374 27.1672 62.1249 27.2048C62.7825 27.355 63.3504 27.524 63.8296 27.7118C64.3083 27.8996 64.7263 28.125 65.083 28.3879Z" fill="#17171B"/>
<path id="Vector_7" d="M75.562 24.8103C75.0929 24.8103 74.6513 24.9182 74.2382 25.1342C73.825 25.3502 73.4635 25.6413 73.1535 26.0075C72.844 26.3737 72.5996 26.8009 72.4212 27.2892C72.2428 27.7781 72.1536 28.3033 72.1536 28.8668C72.1536 29.4302 72.2428 29.942 72.4212 30.4021C72.5996 30.8628 72.844 31.2566 73.1535 31.5852C73.4635 31.9139 73.825 32.1721 74.2382 32.3599C74.6513 32.5477 75.0929 32.6416 75.562 32.6416C76.1443 32.6416 76.7127 32.5054 77.2666 32.2331C77.8205 31.9608 78.2949 31.5805 78.6893 31.0923L81.0838 33.4585C80.4257 34.2473 79.6187 34.8771 78.6608 35.3459C77.7029 35.8155 76.6703 36.0502 75.562 36.0502C74.5482 36.0502 73.5999 35.8577 72.7172 35.4727C71.8345 35.0883 71.0641 34.5619 70.407 33.8952C69.749 33.2291 69.2284 32.4491 68.8436 31.557C68.4585 30.665 68.2661 29.7119 68.2661 28.6977C68.2661 27.6836 68.4585 26.7305 68.8436 25.8385C69.2279 24.947 69.749 24.167 70.407 23.5003C71.0641 22.8342 71.8345 22.3078 72.7172 21.9228C73.5999 21.5378 74.5482 21.3453 75.562 21.3453C76.7079 21.3453 77.769 21.5895 78.7457 22.0777C79.7214 22.566 80.5482 23.2327 81.2246 24.0778L78.5201 26.1624C77.9748 25.6554 77.4816 25.3032 77.041 25.106C76.5999 24.9088 76.1067 24.8103 75.562 24.8103Z" fill="#17171B"/>
<path id="Vector_8" d="M97.8323 22.1307V36.1032H94.4798L94.0855 34.6101C93.5403 35.3426 92.888 35.8308 92.1278 36.075C91.367 36.3186 90.5735 36.4412 89.7472 36.4412C88.7517 36.4412 87.8358 36.2487 87.0008 35.8637C86.1649 35.4793 85.4369 34.9529 84.8174 34.2862C84.1975 33.62 83.7139 32.8401 83.3668 31.948C83.0193 31.056 82.8457 30.1029 82.8457 29.0887C82.8457 28.0746 83.0193 27.1215 83.3668 26.2294C83.7139 25.338 84.1975 24.558 84.8174 23.8913C85.4369 23.2252 86.1649 22.6988 87.0008 22.3138C87.8358 21.9288 88.7512 21.7363 89.7472 21.7363C90.6487 21.7363 91.475 21.8771 92.2261 22.1589C92.9767 22.4405 93.5967 22.8913 94.0855 23.511L94.4798 22.1307H97.8323ZM93.9447 29.1451C93.9447 28.4127 93.8459 27.7976 93.6487 27.2999C93.4516 26.8023 93.1879 26.3985 92.86 26.0886C92.5313 25.7787 92.1456 25.5534 91.705 25.4125C91.2639 25.2717 90.7895 25.2013 90.2823 25.2013C89.7752 25.2013 89.3013 25.3045 88.8597 25.5111C88.4186 25.7177 88.0286 25.9947 87.6907 26.3422C87.3527 26.6896 87.089 27.1027 86.902 27.5816C86.714 28.0605 86.6204 28.5635 86.6204 29.0887C86.6204 29.614 86.714 30.1405 86.902 30.61C87.089 31.0795 87.3527 31.4879 87.6907 31.8354C88.0286 32.1834 88.4186 32.4598 88.8597 32.6664C89.3013 32.873 89.7752 32.9763 90.2823 32.9763C91.2966 32.9763 92.1557 32.6623 92.86 32.0325C93.5644 31.4034 93.9259 30.4409 93.9447 29.1451Z" fill="#17171B"/>
<path id="Vector_9" d="M108.409 21.3453C109.404 21.3453 110.324 21.5378 111.169 21.9228C112.014 22.3078 112.742 22.8336 113.352 23.5003C113.963 24.167 114.441 24.947 114.789 25.8384C115.137 26.7305 115.31 27.6836 115.31 28.6977C115.31 29.7119 115.137 30.665 114.789 31.557C114.441 32.4491 113.963 33.2285 113.352 33.8952C112.742 34.5619 112.014 35.0883 111.169 35.4727C110.324 35.8577 109.404 36.0502 108.409 36.0502C107.601 36.0502 106.812 35.9047 106.042 35.6136C105.272 35.3225 104.671 34.9516 104.239 34.5008V41.2899H100.352V21.7397H103.676L104.239 22.6975C104.784 22.2092 105.394 21.8617 106.071 21.6552C106.746 21.4486 107.526 21.3453 108.409 21.3453ZM107.901 32.5853C108.409 32.5853 108.883 32.482 109.324 32.2754C109.765 32.0688 110.15 31.7924 110.479 31.4444C110.807 31.0969 111.071 30.6885 111.268 30.219C111.465 29.7495 111.563 29.243 111.563 28.6977C111.563 28.1526 111.465 27.6696 111.268 27.1906C111.071 26.7117 110.807 26.2992 110.479 25.9512C110.15 25.6037 109.765 25.3267 109.324 25.1201C108.883 24.9135 108.409 24.8103 107.901 24.8103C107.394 24.8103 106.92 24.8807 106.479 25.0215C106.038 25.1624 105.652 25.3877 105.324 25.6976C104.995 26.0075 104.737 26.4118 104.549 26.9089C104.362 27.4066 104.268 28.0035 104.268 28.6977C104.268 29.3556 104.362 29.9232 104.549 30.4021C104.737 30.881 104.995 31.2848 105.324 31.6134C105.652 31.942 106.038 32.1862 106.479 32.3458C106.919 32.5054 107.394 32.5853 107.901 32.5853Z" fill="#17171B"/>
<path id="Vector_10" d="M123.874 21.3453C124.925 21.3453 125.883 21.5566 126.747 21.9791C127.61 22.4017 128.353 22.9557 128.973 23.6412C129.592 24.3273 130.071 25.1154 130.409 26.0075C130.747 26.8996 130.916 27.8151 130.916 28.7541C130.916 29.3175 130.841 29.9191 130.691 30.557H120.718C121.094 31.1955 121.629 31.7355 122.324 32.1768C123.018 32.6181 123.77 32.8388 124.578 32.8388C125.385 32.8388 126.094 32.773 126.705 32.6416C127.314 32.5101 127.892 32.3411 128.437 32.1345L129.733 34.529C129.038 35.0179 128.244 35.3929 127.353 35.6558C126.46 35.9187 125.507 36.0502 124.493 36.0502C123.385 36.0502 122.353 35.8577 121.395 35.4727C120.437 35.0883 119.601 34.5672 118.887 33.9093C118.173 33.2519 117.61 32.4726 117.197 31.5711C116.784 30.6697 116.577 29.7119 116.577 28.6977C116.577 27.6836 116.765 26.7587 117.141 25.8667C117.516 24.9746 118.037 24.1952 118.704 23.5285C119.37 22.8624 120.145 22.3313 121.028 21.9369C121.911 21.5425 122.859 21.3453 123.874 21.3453ZM127.057 27.5428C126.832 26.7358 126.427 26.0779 125.845 25.5708C125.263 25.0638 124.606 24.8103 123.874 24.8103C123.141 24.8103 122.441 25.0638 121.831 25.5708C121.221 26.0779 120.803 26.7352 120.577 27.5428H127.057Z" fill="#17171B"/>
</g>
</g>
</svg>
