<svg xmlns="http://www.w3.org/2000/svg" width="117" height="28" viewBox="0 0 117 28" fill="none">
  <path d="M12.2303 7.8148L11.8343 9.17148C11.3435 8.56239 10.7218 8.11937 9.96766 7.84252C9.21343 7.56562 8.38378 7.42717 7.47873 7.42717C6.47944 7.42717 5.55963 7.61641 4.72118 7.9948C3.8821 8.3732 3.15148 8.88999 2.52924 9.54528C1.90704 10.2005 1.42148 10.9671 1.07265 11.8433C0.723877 12.7201 0.549438 13.6568 0.549438 14.6536C0.549438 15.6503 0.723877 16.5871 1.07265 17.4638C1.42148 18.3406 1.90704 19.1066 2.52924 19.7619C3.15148 20.4171 3.8821 20.9345 4.72118 21.3124C5.55963 21.6908 6.47881 21.88 7.47873 21.88C8.30837 21.88 9.10501 21.76 9.86864 21.52C10.6323 21.2801 11.2875 20.8002 11.8343 20.0803L12.2303 21.5477H15.5959V7.8148H12.2303ZM10.604 17.5469C9.89695 18.1658 9.0343 18.4744 8.01613 18.4744C7.50705 18.4744 7.03093 18.3729 6.58786 18.1699C6.14475 17.9668 5.75348 17.6951 5.41409 17.3531C5.0747 17.0116 4.81014 16.6101 4.6222 16.1487C4.43363 15.6872 4.33934 15.1895 4.33934 14.6536C4.33934 14.1177 4.43363 13.643 4.6222 13.1723C4.81014 12.7016 5.0747 12.2961 5.41409 11.9541C5.75348 11.6126 6.14475 11.3403 6.58786 11.1373C7.03093 10.9342 7.50705 10.8327 8.01613 10.8327C8.52521 10.8327 9.00133 10.902 9.4444 11.0404C9.88693 11.1788 10.274 11.4003 10.604 11.7049C10.9334 12.0094 11.198 12.4069 11.3959 12.8954C11.5939 13.3846 11.6929 13.9891 11.6929 14.709C11.674 15.9826 11.3111 16.9286 10.604 17.5469Z" fill="white"/>
  <path d="M5.00396 0.970001C5.60321 0.970001 6.10876 1.17304 6.52124 1.57912C6.93308 1.9852 7.13932 2.48357 7.13932 3.07423C7.13932 3.66489 6.93308 4.16788 6.52124 4.58319C6.10876 4.9985 5.60321 5.20615 5.00396 5.20615C4.4047 5.20615 3.89383 4.9985 3.47197 4.58319C3.05005 4.16788 2.84033 3.66489 2.84033 3.07423C2.84033 2.48357 3.05068 1.9852 3.47197 1.57912C3.89383 1.17304 4.40412 0.970001 5.00396 0.970001Z" fill="#52C1BF"/>
  <path d="M11.8483 0.970001C12.4476 0.970001 12.9531 1.17304 13.3656 1.57912C13.7774 1.9852 13.9837 2.48357 13.9837 3.07423C13.9837 3.6649 13.7774 4.16788 13.3656 4.58319C12.9531 4.9985 12.4476 5.20615 11.8483 5.20615C11.2491 5.20615 10.7382 4.9985 10.3163 4.58319C9.89446 4.16788 9.68469 3.6649 9.68469 3.07423C9.68469 2.48357 9.89504 1.9852 10.3163 1.57912C10.7382 1.17304 11.2485 0.970001 11.8483 0.970001Z" fill="#EE81A5"/>
  <path d="M21.9591 9.72535C22.1474 9.43002 22.3642 9.14852 22.6096 8.88091C22.8545 8.61382 23.1469 8.37331 23.4861 8.16104C23.8259 7.94934 24.2122 7.778 24.6458 7.64879C25.0795 7.5202 25.5693 7.455 26.1167 7.455C26.7576 7.455 27.5025 7.56573 28.3509 7.78724L27.9831 11.1928C27.7755 11.1559 27.5683 11.1097 27.3611 11.0544C27.1913 11.0174 27.003 10.9851 26.7953 10.9574C26.5872 10.9297 26.3994 10.9159 26.23 10.9159C25.626 10.9159 25.0655 10.999 24.5471 11.1651C24.0282 11.3312 23.5805 11.562 23.2035 11.8573C22.826 12.1526 22.5249 12.5079 22.2984 12.9232C22.0724 13.3385 21.9591 13.7862 21.9591 14.2661V21.5478H18.056V7.81491H21.5912L21.9591 9.72535Z" fill="white"/>
  <path d="M36.397 18.1405C36.8026 18.4924 37.3354 18.6683 37.9952 18.6683C38.5232 18.6683 39.0513 18.5674 39.5788 18.3637V21.5518C39.1074 21.6983 38.6079 21.8218 38.0799 21.9227C37.5523 22.0231 37.0237 22.0738 36.4962 22.0738C35.8921 22.0738 35.3176 22 34.7707 21.8524C34.2237 21.7041 33.7339 21.4509 33.3002 21.0909C32.8661 20.731 32.5224 20.2511 32.2679 19.6512C32.0133 19.0513 31.886 18.3084 31.886 17.4224V11.2204H29.8778V8.64548L31.886 7.81488V4.7416H35.789V7.81488H39.5788V11.2204H35.789V16.6396C35.789 17.288 35.9913 17.7881 36.397 18.1405Z" fill="white"/>
  <path d="M50.3546 14.3493C51.3908 15.0691 51.9102 16.0936 51.9102 17.4226C51.9102 18.0317 51.764 18.6039 51.4716 19.1392C51.1793 19.6745 50.7785 20.1452 50.2698 20.5512C49.7607 20.9573 49.1668 21.2757 48.4877 21.5064C47.8091 21.7372 47.0831 21.8526 46.3102 21.8526C45.7255 21.8526 45.1543 21.7787 44.5987 21.6311C44.0426 21.4834 43.5281 21.2803 43.0576 21.0219C42.5862 20.7635 42.1762 20.4543 41.8272 20.0944C41.4783 19.7345 41.2193 19.333 41.0494 18.89C41.4831 18.687 41.9637 18.4608 42.4918 18.2116C43.0199 17.9625 43.4816 17.7364 43.8775 17.5333C44.0474 17.8102 44.3112 18.064 44.6698 18.2947C45.027 18.5255 45.5183 18.6408 46.1403 18.6408C46.7627 18.6408 47.253 18.4931 47.5545 18.1978C47.8556 17.9031 48.0071 17.6256 48.0071 17.3672C48.0071 17.1832 47.9035 17.0119 47.6959 16.855C47.4882 16.6981 47.253 16.5735 46.9887 16.4812C46.6117 16.3335 46.3005 16.2551 46.0556 16.2459C45.8102 16.2366 45.5275 16.1859 45.2071 16.0936C44.1887 15.8542 43.4109 15.5358 42.8737 15.1384C42.3364 14.7415 41.9449 14.3401 41.7 13.934C41.4546 13.5279 41.3181 13.1408 41.29 12.7711C41.2614 12.4019 41.2474 12.1066 41.2474 11.8851C41.2474 11.2945 41.3786 10.7315 41.6433 10.1962C41.9071 9.66089 42.2696 9.19541 42.7323 8.79797C43.1941 8.40115 43.7313 8.08274 44.3446 7.84275C44.9573 7.60338 45.6122 7.48284 46.3102 7.48284C46.8944 7.48284 47.451 7.5659 47.9785 7.73202C48.5061 7.89814 48.9867 8.12946 49.4214 8.42422C49.855 8.71955 50.2273 9.07084 50.5385 9.47634C50.8492 9.8824 51.0806 10.3346 51.2311 10.833L48.2051 11.8297C48.0918 11.4975 47.8609 11.2298 47.512 11.0268C47.163 10.8238 46.7908 10.7222 46.3949 10.7222C45.9989 10.7222 45.6776 10.8515 45.4331 11.1099C45.1882 11.3683 45.0658 11.6267 45.0658 11.8851C45.0658 12.1989 45.1834 12.4435 45.4191 12.6188C45.6548 12.7942 45.9142 12.9188 46.1969 12.9926C46.4045 13.0301 46.6069 13.0618 46.8048 13.0895C47.0028 13.1172 47.1964 13.1495 47.3847 13.1864C48.0448 13.3341 48.615 13.5002 49.0961 13.6848C49.5767 13.8694 49.9964 14.0909 50.3546 14.3493Z" fill="white"/>
  <path d="M60.8752 10.8327C60.4042 10.8327 59.9609 10.9389 59.5461 11.1511C59.1313 11.3634 58.7683 11.6495 58.4571 12.0094C58.1463 12.3694 57.9009 12.7893 57.7219 13.2692C57.5428 13.7497 57.4532 14.2659 57.4532 14.8197C57.4532 15.3734 57.5428 15.8764 57.7219 16.3287C57.9009 16.7815 58.1463 17.1685 58.4571 17.4915C58.7683 17.8145 59.1313 18.0683 59.5461 18.2529C59.9609 18.4375 60.4042 18.5298 60.8752 18.5298C61.4599 18.5298 62.0305 18.396 62.5867 18.1283C63.1428 17.8607 63.6191 17.4869 64.015 17.007L66.4191 19.3327C65.7584 20.108 64.9481 20.7269 63.9864 21.1878C63.0247 21.6493 61.9879 21.88 60.8752 21.88C59.8573 21.88 58.9053 21.6908 58.019 21.3124C57.1328 20.9345 56.3594 20.4171 55.6997 19.7619C55.039 19.1072 54.5163 18.3406 54.13 17.4638C53.7433 16.5871 53.5502 15.6503 53.5502 14.6536C53.5502 13.6568 53.7433 12.7201 54.13 11.8433C54.5158 10.9671 55.039 10.2005 55.6997 9.54528C56.3594 8.8906 57.1328 8.3732 58.019 7.9948C58.9053 7.61641 59.8573 7.42717 60.8752 7.42717C62.0257 7.42717 63.091 7.66716 64.0716 8.14704C65.0512 8.62697 65.8813 9.28226 66.5604 10.1129L63.8451 12.1617C63.2977 11.6633 62.8025 11.3173 62.3601 11.1234C61.9173 10.9296 61.4221 10.8327 60.8752 10.8327Z" fill="white"/>
  <path d="M83.2346 8.19943V21.9323H79.8687L79.4728 20.4649C78.9254 21.1848 78.2705 21.6647 77.5073 21.9047C76.7435 22.144 75.9468 22.2646 75.1172 22.2646C74.1177 22.2646 73.1981 22.0754 72.3598 21.697C71.5205 21.3192 70.7897 20.8018 70.1677 20.1465C69.5453 19.4918 69.0598 18.7252 68.7113 17.8485C68.3624 16.9717 68.1881 16.035 68.1881 15.0382C68.1881 14.0415 68.3624 13.1047 68.7113 12.2279C69.0598 11.3517 69.5453 10.5852 70.1677 9.92991C70.7897 9.27523 71.5205 8.75782 72.3598 8.37943C73.1981 8.00104 74.1172 7.8118 75.1172 7.8118C76.0223 7.8118 76.8519 7.95025 77.606 8.22715C78.3596 8.504 78.982 8.94702 79.4728 9.55611L79.8687 8.19943H83.2346ZM79.3315 15.0936C79.3315 14.3737 79.2323 13.7692 79.0343 13.28C78.8363 12.7909 78.5716 12.394 78.2425 12.0895C77.9124 11.785 77.5252 11.5634 77.0828 11.425C76.6399 11.2866 76.1636 11.2174 75.6545 11.2174C75.1453 11.2174 74.6695 11.3189 74.2261 11.5219C73.7833 11.725 73.3917 11.9972 73.0524 12.3387C72.7131 12.6802 72.4484 13.0862 72.2606 13.5569C72.0718 14.0276 71.9779 14.522 71.9779 15.0382C71.9779 15.5545 72.0718 16.0719 72.2606 16.5333C72.4484 16.9948 72.7131 17.3962 73.0524 17.7377C73.3917 18.0798 73.7833 18.3515 74.2261 18.5545C74.6695 18.7575 75.1453 18.8591 75.6545 18.8591C76.6728 18.8591 77.5353 18.5505 78.2425 17.9315C78.9496 17.3132 79.3126 16.3672 79.3315 15.0936Z" fill="white"/>
  <path d="M93.8531 7.42717C94.8521 7.42717 95.776 7.61641 96.6245 7.9948C97.473 8.3732 98.2039 8.88999 98.8166 9.54528C99.4294 10.2005 99.91 10.9671 100.259 11.8433C100.608 12.7201 100.782 13.6568 100.782 14.6536C100.782 15.6503 100.608 16.5871 100.259 17.4638C99.91 18.3406 99.4294 19.1066 98.8166 19.7619C98.2039 20.4171 97.473 20.9345 96.6245 21.3124C95.776 21.6908 94.8521 21.88 93.8531 21.88C93.0424 21.88 92.25 21.7369 91.4771 21.4508C90.7041 21.1647 90.1005 20.8002 89.6669 20.3571V27.0298H85.7643V7.8148H89.1015L89.6669 8.75618C90.2138 8.27625 90.8266 7.93477 91.5056 7.73174C92.1842 7.52871 92.9669 7.42717 93.8531 7.42717ZM93.3439 18.4744C93.8531 18.4744 94.3289 18.3729 94.7722 18.1699C95.2146 17.9668 95.6018 17.6951 95.9319 17.3531C96.2615 17.0116 96.5258 16.6101 96.7237 16.1487C96.9217 15.6872 97.0204 15.1894 97.0204 14.6536C97.0204 14.1177 96.9217 13.643 96.7237 13.1723C96.5258 12.7016 96.2615 12.2961 95.9319 11.9541C95.6018 11.6126 95.2146 11.3403 94.7722 11.1373C94.3289 10.9342 93.8531 10.8327 93.3439 10.8327C92.8347 10.8327 92.3584 10.902 91.9156 11.0404C91.4727 11.1788 91.0855 11.4003 90.7559 11.7049C90.4258 12.0094 90.1668 12.4069 89.9781 12.8954C89.7898 13.3846 89.6954 13.9712 89.6954 14.6536C89.6954 15.3002 89.7898 15.858 89.9781 16.3287C90.1668 16.7993 90.4258 17.1962 90.7559 17.5192C91.0855 17.8422 91.4727 18.0822 91.9156 18.2391C92.358 18.396 92.8347 18.4744 93.3439 18.4744Z" fill="white"/>
  <path d="M109.38 7.42717C110.436 7.42717 111.397 7.63484 112.265 8.05015C113.131 8.46545 113.877 9.00996 114.499 9.68373C115.121 10.358 115.602 11.1327 115.942 12.0094C116.281 12.8862 116.451 13.786 116.451 14.709C116.451 15.2627 116.375 15.8539 116.224 16.4809H106.212C106.589 17.1085 107.127 17.6392 107.824 18.073C108.521 18.5067 109.276 18.7236 110.087 18.7236C110.898 18.7236 111.61 18.659 112.222 18.5298C112.834 18.4006 113.414 18.2344 113.961 18.0314L115.262 20.3848C114.565 20.8653 113.768 21.2339 112.873 21.4923C111.977 21.7507 111.02 21.88 110.002 21.88C108.89 21.88 107.853 21.6908 106.891 21.3124C105.929 20.9345 105.09 20.4223 104.374 19.7757C103.657 19.1297 103.091 18.3637 102.677 17.4777C102.262 16.5917 102.054 15.6503 102.054 14.6536C102.054 13.6568 102.243 12.7478 102.62 11.871C102.997 10.9942 103.52 10.2282 104.19 9.57295C104.859 8.91828 105.636 8.39627 106.523 8.00864C107.409 7.62101 108.361 7.42717 109.38 7.42717ZM112.576 13.5184C112.35 12.7253 111.944 12.0786 111.359 11.5803C110.775 11.0819 110.115 10.8327 109.38 10.8327C108.645 10.8327 107.941 11.0819 107.329 11.5803C106.716 12.0786 106.297 12.7247 106.071 13.5184H112.576Z" fill="white"/>
</svg>