<svg xmlns="http://www.w3.org/2000/svg" width="8" height="16" viewBox="0 0 8 16" fill="none">
  <path d="M0 15.0017C0.00023652 14.7363 0.107156 14.4818 0.297251 14.2943L5.48023 9.17379C5.63711 9.01885 5.76155 8.83489 5.84646 8.63242C5.93136 8.42995 5.97506 8.21294 5.97506 7.99379C5.97506 7.77463 5.93136 7.55762 5.84646 7.35515C5.76155 7.15269 5.63711 6.96873 5.48023 6.81378L0.304007 1.69664C0.119416 1.50782 0.0172752 1.25493 0.019584 0.992437C0.0218929 0.729942 0.128467 0.478845 0.316351 0.293226C0.504235 0.107607 0.758398 0.00231885 1.0241 3.78456e-05C1.28979 -0.00224316 1.54577 0.0986658 1.73689 0.281031L6.91311 5.39417C7.60911 6.08313 8 7.01674 8 7.99012C8 8.96349 7.60911 9.89711 6.91311 10.5861L1.73014 15.7065C1.58862 15.8464 1.40832 15.9418 1.21201 15.9806C1.01569 16.0193 0.812142 15.9998 0.627057 15.9244C0.441971 15.849 0.283639 15.7211 0.17204 15.5569C0.0604405 15.3927 0.000575787 15.1995 0 15.0017Z" fill="#52C1BF"/>
</svg>