<svg width="86" height="86" viewBox="0 0 86 86" fill="none" xmlns="http://www.w3.org/2000/svg">
<g id="landscape-2--photos-photo-landscape-picture-photography-camera-pictures-image">
<path id="Vector" d="M8.42829 83.8572H77.5711C81.0427 83.8572 83.8569 81.043 83.8569 77.5715V8.4286C83.8569 4.95709 81.0427 2.14288 77.5711 2.14288H8.42829C4.95679 2.14288 2.14258 4.95709 2.14258 8.4286V77.5715C2.14258 81.043 4.95679 83.8572 8.42829 83.8572Z" stroke="#FAFBFB" stroke-width="4" stroke-linecap="round" stroke-linejoin="round"/>
<path id="Vector_2" d="M10 83.8572L55.8857 40.6112C56.4504 40.1408 57.1622 39.8832 57.8971 39.8832C58.6321 39.8832 59.3438 40.1408 59.9085 40.6112L83.8571 57.7712" stroke="#FAFBFB" stroke-width="4" stroke-linecap="round" stroke-linejoin="round"/>
<path id="Vector_3" d="M27.285 36.7143C32.4923 36.7143 36.7136 32.493 36.7136 27.2857C36.7136 22.0785 32.4923 17.8572 27.285 17.8572C22.0777 17.8572 17.8564 22.0785 17.8564 27.2857C17.8564 32.493 22.0777 36.7143 27.285 36.7143Z" stroke="#FAFBFB" stroke-width="4" stroke-linecap="round" stroke-linejoin="round"/>
</g>
</svg>
