<svg xmlns="http://www.w3.org/2000/svg" width="24" height="24" viewBox="0 0 24 24" fill="none">
  <path d="M2.57146 23.1428H21.4286C22.3754 23.1428 23.1429 22.3753 23.1429 21.4285V2.5714C23.1429 1.62463 22.3754 0.857117 21.4286 0.857117H2.57146C1.62469 0.857117 0.857178 1.62463 0.857178 2.5714V21.4285C0.857178 22.3753 1.62469 23.1428 2.57146 23.1428Z" stroke="#FAFBFB" stroke-width="2" stroke-linecap="round" stroke-linejoin="round"/>
  <path d="M3 23.1428L15.5143 11.3485C15.6683 11.2202 15.8624 11.15 16.0629 11.15C16.2633 11.15 16.4574 11.2202 16.6114 11.3485L23.1429 16.0285" stroke="#FAFBFB" stroke-width="2" stroke-linecap="round" stroke-linejoin="round"/>
  <path d="M7.71425 10.2857C9.13442 10.2857 10.2857 9.13442 10.2857 7.71425C10.2857 6.29409 9.13442 5.14282 7.71425 5.14282C6.29409 5.14282 5.14282 6.29409 5.14282 7.71425C5.14282 9.13442 6.29409 10.2857 7.71425 10.2857Z" stroke="#FAFBFB" stroke-width="2" stroke-linecap="round" stroke-linejoin="round"/>
</svg>