<svg xmlns="http://www.w3.org/2000/svg" width="20" height="20" viewBox="0 0 20 20" fill="none">
  <path d="M8.61499 19H11.3842" stroke="white" stroke-width="2" stroke-linecap="round" stroke-linejoin="round"/>
  <path d="M15.5389 8.19952C15.5389 6.67187 14.9554 5.2068 13.9167 4.12658C12.878 3.04638 11.4693 2.43952 10.0004 2.43952C8.5315 2.43952 7.12278 3.04638 6.08411 4.12658C5.04545 5.2068 4.46193 6.67187 4.46193 8.19952V13.2395C4.46193 13.8124 4.24311 14.3619 3.85362 14.7669C3.46412 15.172 2.93584 15.3995 2.38501 15.3995H17.6158C17.065 15.3995 16.5366 15.172 16.1471 14.7669C15.7576 14.3619 15.5389 13.8124 15.5389 13.2395V8.19952Z" stroke="white" stroke-width="2" stroke-linecap="round" stroke-linejoin="round"/>
  <path d="M1 8.0128C1.00075 6.64212 1.31505 5.2913 1.91695 4.07191C2.51884 2.85252 3.39105 1.79956 4.46154 1" stroke="white" stroke-width="2" stroke-linecap="round" stroke-linejoin="round"/>
  <path d="M18.9999 8.0128C18.9992 6.64212 18.6849 5.2913 18.083 4.07191C17.4811 2.85252 16.6088 1.79956 15.5383 1" stroke="white" stroke-width="2" stroke-linecap="round" stroke-linejoin="round"/>
</svg>