<svg xmlns="http://www.w3.org/2000/svg" width="20" height="20" viewBox="0 0 20 20" fill="none">
  <path d="M8.61523 19H11.3845" stroke="#17171B" stroke-width="2" stroke-linecap="round" stroke-linejoin="round"/>
  <path d="M15.5386 8.19958C15.5386 6.67192 14.9551 5.20685 13.9164 4.12664C12.8778 3.04643 11.469 2.43958 10.0001 2.43958C8.53125 2.43958 7.12253 3.04643 6.08386 4.12664C5.04521 5.20685 4.46169 6.67192 4.46169 8.19958V13.2396C4.46169 13.8124 4.24286 14.3619 3.85337 14.767C3.46388 15.1721 2.93559 15.3996 2.38477 15.3996H17.6155C17.0647 15.3996 16.5364 15.1721 16.1469 14.767C15.7574 14.3619 15.5386 13.8124 15.5386 13.2396V8.19958Z" stroke="#17171B" stroke-width="2" stroke-linecap="round" stroke-linejoin="round"/>
  <path d="M1 8.0128C1.00075 6.64212 1.31505 5.2913 1.91695 4.07191C2.51884 2.85252 3.39105 1.79956 4.46154 1" stroke="#17171B" stroke-width="2" stroke-linecap="round" stroke-linejoin="round"/>
  <path d="M18.9999 8.0128C18.9992 6.64212 18.6849 5.2913 18.083 4.07191C17.4811 2.85252 16.6088 1.79956 15.5383 1" stroke="#17171B" stroke-width="2" stroke-linecap="round" stroke-linejoin="round"/>
</svg>