<svg xmlns="http://www.w3.org/2000/svg" width="354" height="92" viewBox="0 0 354 92" fill="none">
  <path fill-rule="evenodd" clip-rule="evenodd" d="M190.284 153.826L254.907 93.5795L355.835 201.95L364.031 194.317L292.213 117.203L318.666 92.734L357.697 134.745L365.902 127.122L297.685 53.6971L362.158 -6.41028L362.37 -6.18237L370.564 -13.8177L255.764 -137.018L247.57 -129.382L309.033 -63.423L277.878 -34.4937L219.186 -97.7708L215.08 -93.9626L273.774 -30.6832L244.524 -3.52228L163.985 -90.2095L221.88 -144.032L214.255 -152.235L156.362 -98.4148L121.369 -136.078L113.164 -128.455L148.159 -90.789L118.563 -63.2758L59.5837 -126.707L55.4826 -122.893L114.462 -59.4629L50.8686 -0.343399L-48.5003 -107.148L-56.7002 -99.519L42.6656 7.28241L28.5212 20.4317C26.2561 22.5375 26.1269 26.0809 28.2327 28.3461C30.3385 30.6112 33.8819 30.7404 36.1471 28.6346L50.2947 15.4823L79.611 46.9923C79.7461 47.4371 79.916 47.9915 80.1193 48.6464C80.6978 50.51 81.5478 53.1891 82.6401 56.4734C84.8232 63.0372 87.9819 72.0419 91.8836 81.7963C99.5624 100.993 110.531 124.184 123.107 136.76C135.528 149.181 149.719 152.927 162.785 156.376L162.825 156.387C163.301 156.512 163.776 156.638 164.249 156.763C177.823 160.36 190.515 164.034 202.44 175.96L268.24 241.76L276.16 233.84L210.36 168.04C203.814 161.494 197.035 157.06 190.284 153.826ZM58.4976 7.85651L122.088 -51.2607L149.818 -21.4385L86.2798 37.7177L58.4976 7.85651ZM91.6611 48.0102L100.915 39.3944L191.781 137.118L178.782 149.237L178.845 149.305C174.852 148.002 170.924 146.945 167.117 145.937L166.365 145.737C152.852 142.16 141.283 139.096 131.026 128.84C120.268 118.082 110.004 96.9398 102.283 77.6367C98.4844 68.1412 95.4014 59.3541 93.2678 52.9388C92.6501 51.0817 92.1126 49.4253 91.6611 48.0102ZM105.014 35.5784L156.363 -12.2297L224.323 60.7412L172.614 108.28L105.014 35.5784ZM153.917 -25.2545L126.19 -55.0736L155.782 -82.5838L183.476 -52.7755L153.917 -25.2545ZM191.099 -44.5703L164.56 -19.8616L184.714 1.77812L211.032 -23.1167L191.099 -44.5703ZM214.843 -19.0139L188.531 5.87625L234.86 55.6212L261.413 31.1107L214.843 -19.0139ZM265.225 35.2133L238.676 59.7192L255.465 77.746L281.87 53.1293L265.225 35.2133ZM289.493 61.3345L263.099 85.9421L284.58 109.007L311.043 84.5288L289.493 61.3345ZM228.14 64.8392L247.273 85.3835L195.877 133.3L176.427 112.382L228.14 64.8392ZM248.336 0.580322L290.062 45.4919L334.745 3.83479L293.054 -40.9439L248.336 0.580322ZM297.158 -44.7544L338.841 0.016098L354.523 -14.6043L312.85 -59.326L297.158 -44.7544Z" fill="#FAFBFB"/>
</svg>